<svg xmlns="http://www.w3.org/2000/svg" version="1.1" xmlns:xlink="http://www.w3.org/1999/xlink" xmlns:svgjs="http://svgjs.dev/svgjs" width="2000" height="1252" viewBox="0 0 2000 1252"><g transform="matrix(1,0,0,1,-1.2121212121212466,230.94084947993952)"><svg viewBox="0 0 396 248" data-background-color="#ffffff" preserveAspectRatio="xMidYMid meet" height="1252" width="2000" xmlns="http://www.w3.org/2000/svg" xmlns:xlink="http://www.w3.org/1999/xlink"><g id="tight-bounds" transform="matrix(1,0,0,1,0.2400000000000091,0.4000000000000057)"><svg viewBox="0 0 395.52 247.2" height="247.2" width="395.52"><g><svg></svg></g><g><svg viewBox="0 0 395.52 247.2" height="247.2" width="395.52"><g transform="matrix(1,0,0,1,75.54432,77.09479452054794)"><svg viewBox="0 0 244.43135999999998 93.0104109589041" height="93.0104109589041" width="244.43135999999998"><g><svg viewBox="0 0 244.43135999999998 93.0104109589041" height="93.0104109589041" width="244.43135999999998"><g><svg viewBox="0 0 244.43135999999998 93.0104109589041" height="93.0104109589041" width="244.43135999999998"><g id="textblocktransform"><svg viewBox="0 0 244.43135999999998 93.0104109589041" height="93.0104109589041" width="244.43135999999998" id="textblock"><g><svg viewBox="0 0 244.43135999999998 93.0104109589041" height="93.0104109589041" width="244.43135999999998"><g transform="matrix(1,0,0,1,0,0)"><svg width="244.43135999999998" viewBox="0.65 -37.5 98.55 37.5" height="93.0104109589041" data-palette-color="#000000"><path d="M0.65-37.5L45.7-37.5 45.7-22.3 33.65-22.3Q33.65-22.3 33.63-22.28 33.6-22.25 33.58-22.25 33.55-22.25 33.55-22.2L33.55-22.2Q33.55-20 33.55-17.78 33.55-15.55 33.55-13.33 33.55-11.1 33.55-8.88 33.55-6.65 33.55-4.42 33.55-2.2 33.55 0L33.55 0 12.8 0Q12.8-3.7 12.8-7.4 12.8-11.1 12.8-14.8 12.8-18.5 12.8-22.2L12.8-22.2Q12.8-22.2 12.8-22.23 12.8-22.25 12.78-22.28 12.75-22.3 12.73-22.3 12.7-22.3 12.7-22.3L12.7-22.3 0.65-22.3 0.65-37.5ZM47.35-37.5L77.15-37.5Q81.85-37.5 85.47-36.48 89.1-35.45 91.7-33.65 94.3-31.85 95.95-29.48 97.6-27.1 98.4-24.4 99.2-21.7 99.2-18.9L99.2-18.9Q99.2-15.35 97.92-11.98 96.65-8.6 93.97-5.9 91.3-3.2 87.12-1.6 82.95 0 77.15 0L77.15 0 47.35 0Q47.35-3.2 47.35-6.38 47.35-9.55 47.35-12.73 47.35-15.9 47.35-19.07 47.35-22.25 47.35-25.45L47.35-25.45Q47.35-28.45 47.35-31.48 47.35-34.5 47.35-37.5L47.35-37.5ZM73.15-23.1L73.15-23.1 67.2-23.1Q67.2-23.1 67.17-23.1 67.15-23.1 67.15-23.1 67.15-23.1 67.15-23.08 67.15-23.05 67.15-23L67.15-23 67.15-14.5Q67.15-14.45 67.15-14.43 67.15-14.4 67.15-14.4 67.15-14.4 67.17-14.4 67.2-14.4 67.2-14.4L67.2-14.4 73.25-14.4Q74.35-14.4 75.22-14.75 76.1-15.1 76.7-15.7 77.3-16.3 77.62-17.1 77.95-17.9 77.95-18.75L77.95-18.75Q77.95-19.95 77.37-20.95 76.8-21.95 75.75-22.53 74.7-23.1 73.15-23.1Z" opacity="1" transform="matrix(1,0,0,1,0,0)" fill="#ffffff" class="wordmark-text-0" data-fill-palette-color="primary" id="text-0"></path></svg></g></svg></g></svg></g></svg></g><g></g></svg></g></svg></g><g><path d="M96.52 55.137A122.216 122.216 0 0 1 299 55.137L290.612 55.137A113.828 113.828 0 0 0 104.908 55.137L96.52 55.137M96.52 192.063A122.216 122.216 0 0 0 299 192.063L290.612 192.063A113.828 113.828 0 0 1 104.908 192.063L96.52 192.063" fill="#ffffff" stroke="transparent" data-fill-palette-color="tertiary"></path></g></svg></g><defs></defs></svg><rect width="395.52" height="247.2" fill="none" stroke="none" visibility="hidden"></rect></g></svg></g></svg>